<svg width="1553" height="282" viewBox="0 0 1553 282" fill="none" xmlns="http://www.w3.org/2000/svg">
<mask id="mask0_1_3" style="mask-type:alpha" maskUnits="userSpaceOnUse" x="0" y="0" width="287" height="282">
<rect width="286.396" height="281.153" fill="#FF0000"/>
</mask>
<g mask="url(#mask0_1_3)">
<path d="M67.7305 117.282L103.343 0.269363H165.665L127.509 117.282H67.7305Z" fill="#FF1725"/>
<path d="M18.934 81.6746L116.958 150.686L97.8392 210.003L0.595396 138.57L18.934 81.6746Z" fill="#FF1725"/>
<path d="M48.9603 244.794L147.281 174.102L196.934 211.766L96.5871 280.92L48.9603 244.794Z" fill="#FF1725"/>
<path d="M215.709 266.06L175.151 151.958L225.138 114.738L263.656 230.359L215.709 266.06Z" fill="#FF1725"/>
<path d="M286.327 115.417L165.248 117.381L145.956 58.1201L267.823 58.575L286.327 115.417Z" fill="#FF1725"/>
</g>
<path d="M427.828 111.324C427.018 110.513 425.512 109.413 423.311 108.023C421.226 106.633 418.62 105.301 415.493 104.027C412.482 102.753 409.181 101.652 405.59 100.726C401.999 99.6834 398.351 99.1622 394.644 99.1622C388.158 99.1622 383.236 100.378 379.877 102.811C376.634 105.243 375.012 108.66 375.012 113.061C375.012 116.42 376.055 119.084 378.139 121.053C380.224 123.022 383.352 124.702 387.521 126.092C391.691 127.481 396.903 128.987 403.158 130.609C411.265 132.578 418.273 135.01 424.18 137.906C430.203 140.686 434.778 144.392 437.905 149.025C441.148 153.542 442.77 159.565 442.77 167.094C442.77 173.696 441.554 179.371 439.121 184.12C436.689 188.753 433.33 192.517 429.045 195.413C424.759 198.309 419.894 200.451 414.451 201.841C409.007 203.115 403.216 203.752 397.077 203.752C390.938 203.752 384.799 203.115 378.661 201.841C372.522 200.567 366.615 198.772 360.939 196.455C355.264 194.023 350.052 191.127 345.303 187.768L355.901 167.094C356.943 168.136 358.797 169.526 361.461 171.263C364.125 172.885 367.368 174.564 371.19 176.302C375.012 177.923 379.182 179.313 383.699 180.472C388.216 181.63 392.791 182.209 397.424 182.209C403.91 182.209 408.833 181.109 412.192 178.908C415.551 176.707 417.23 173.58 417.23 169.526C417.23 165.82 415.898 162.924 413.234 160.839C410.57 158.754 406.864 156.959 402.115 155.453C397.366 153.832 391.749 152.094 385.263 150.241C377.502 148.04 371.016 145.608 365.804 142.944C360.592 140.164 356.712 136.69 354.164 132.52C351.615 128.35 350.341 123.138 350.341 116.883C350.341 108.428 352.31 101.363 356.248 95.6875C360.302 89.8962 365.746 85.5528 372.58 82.6571C379.413 79.6457 387 78.14 395.339 78.14C401.131 78.14 406.574 78.777 411.671 80.0511C416.883 81.3251 421.748 83.0046 426.265 85.0895C430.782 87.1743 434.836 89.4329 438.426 91.8652L427.828 111.324ZM501.021 204.1C493.608 204.1 486.948 202.884 481.041 200.451C475.134 197.903 470.096 194.428 465.926 190.027C461.756 185.51 458.513 180.414 456.197 174.738C453.996 169.063 452.895 163.098 452.895 156.843C452.895 148.272 454.807 140.454 458.629 133.389C462.567 126.207 468.127 120.474 475.308 116.189C482.489 111.903 491.002 109.76 500.847 109.76C510.692 109.76 519.148 111.903 526.213 116.189C533.278 120.474 538.548 126.092 542.023 133.041L519.263 139.991C517.294 136.632 514.688 134.084 511.445 132.346C508.202 130.493 504.611 129.566 500.673 129.566C496.272 129.566 492.218 130.725 488.512 133.041C484.921 135.242 482.083 138.427 479.999 142.597C477.914 146.651 476.871 151.399 476.871 156.843C476.871 162.171 477.914 166.92 479.999 171.09C482.199 175.144 485.095 178.387 488.685 180.819C492.276 183.135 496.272 184.294 500.673 184.294C503.453 184.294 506.059 183.83 508.492 182.904C511.04 181.977 513.298 180.703 515.267 179.082C517.236 177.46 518.684 175.607 519.611 173.522L542.37 180.472C540.286 184.989 537.216 189.043 533.162 192.633C529.224 196.224 524.533 199.061 519.09 201.146C513.762 203.115 507.739 204.1 501.021 204.1ZM610.902 131.477C603.837 131.477 597.524 132.867 591.964 135.647C586.405 138.311 582.409 142.191 579.977 147.288V202.362H556.696V111.324H578.065V130.783C581.309 124.528 585.42 119.605 590.401 116.015C595.381 112.424 600.651 110.455 606.211 110.108C607.485 110.108 608.47 110.108 609.164 110.108C609.859 110.108 610.439 110.166 610.902 110.281V131.477ZM664.74 204.1C657.327 204.1 650.667 202.884 644.76 200.451C638.853 197.903 633.815 194.428 629.645 190.027C625.591 185.626 622.464 180.587 620.263 174.912C618.063 169.236 616.962 163.271 616.962 157.017C616.962 150.647 618.063 144.624 620.263 138.948C622.464 133.273 625.591 128.234 629.645 123.833C633.815 119.432 638.853 116.015 644.76 113.582C650.667 111.034 657.327 109.76 664.74 109.76C672.153 109.76 678.755 111.034 684.546 113.582C690.453 116.015 695.492 119.432 699.661 123.833C703.831 128.234 706.958 133.273 709.043 138.948C711.244 144.624 712.344 150.647 712.344 157.017C712.344 163.271 711.244 169.236 709.043 174.912C706.958 180.587 703.831 185.626 699.661 190.027C695.608 194.428 690.627 197.903 684.72 200.451C678.813 202.884 672.153 204.1 664.74 204.1ZM640.938 157.017C640.938 162.345 641.981 167.094 644.065 171.263C646.15 175.317 648.988 178.502 652.579 180.819C656.169 183.135 660.223 184.294 664.74 184.294C669.142 184.294 673.138 183.135 676.728 180.819C680.319 178.387 683.156 175.144 685.241 171.09C687.442 166.92 688.542 162.171 688.542 156.843C688.542 151.631 687.442 146.94 685.241 142.77C683.156 138.601 680.319 135.358 676.728 133.041C673.138 130.725 669.142 129.566 664.74 129.566C660.223 129.566 656.169 130.783 652.579 133.215C648.988 135.531 646.15 138.774 644.065 142.944C641.981 146.998 640.938 151.689 640.938 157.017ZM770.103 204.1C762.69 204.1 756.03 202.884 750.123 200.451C744.216 197.903 739.177 194.428 735.008 190.027C730.954 185.626 727.826 180.587 725.626 174.912C723.425 169.236 722.325 163.271 722.325 157.017C722.325 150.647 723.425 144.624 725.626 138.948C727.826 133.273 730.954 128.234 735.008 123.833C739.177 119.432 744.216 116.015 750.123 113.582C756.03 111.034 762.69 109.76 770.103 109.76C777.515 109.76 784.118 111.034 789.909 113.582C795.816 116.015 800.854 119.432 805.024 123.833C809.194 128.234 812.321 133.273 814.406 138.948C816.606 144.624 817.707 150.647 817.707 157.017C817.707 163.271 816.606 169.236 814.406 174.912C812.321 180.587 809.194 185.626 805.024 190.027C800.97 194.428 795.99 197.903 790.083 200.451C784.175 202.884 777.515 204.1 770.103 204.1ZM746.301 157.017C746.301 162.345 747.343 167.094 749.428 171.263C751.513 175.317 754.35 178.502 757.941 180.819C761.532 183.135 765.585 184.294 770.103 184.294C774.504 184.294 778.5 183.135 782.091 180.819C785.681 178.387 788.519 175.144 790.604 171.09C792.804 166.92 793.905 162.171 793.905 156.843C793.905 151.631 792.804 146.94 790.604 142.77C788.519 138.601 785.681 135.358 782.091 133.041C778.5 130.725 774.504 129.566 770.103 129.566C765.585 129.566 761.532 130.783 757.941 133.215C754.35 135.531 751.513 138.774 749.428 142.944C747.343 146.998 746.301 151.689 746.301 157.017ZM869.037 202.884C863.014 202.884 857.454 201.725 852.358 199.409C847.378 196.977 843.034 193.618 839.328 189.332C835.737 185.047 832.957 180.124 830.988 174.564C829.019 169.005 828.035 163.098 828.035 156.843C828.035 150.241 829.077 144.102 831.162 138.427C833.247 132.752 836.142 127.771 839.849 123.486C843.671 119.084 848.13 115.725 853.227 113.409C858.439 110.976 864.172 109.76 870.427 109.76C877.492 109.76 883.689 111.382 889.017 114.625C894.345 117.752 898.746 121.98 902.221 127.308V111.324H922.548V198.019C922.548 207.053 920.347 214.756 915.946 221.126C911.66 227.612 905.695 232.535 898.051 235.894C890.407 239.369 881.72 241.106 871.99 241.106C862.145 241.106 853.806 239.427 846.972 236.068C840.138 232.824 834.289 228.191 829.425 222.169L842.107 209.833C845.582 214.119 849.926 217.478 855.138 219.91C860.466 222.342 866.083 223.558 871.99 223.558C876.971 223.558 881.488 222.632 885.542 220.779C889.712 219.041 893.013 216.261 895.445 212.439C897.993 208.733 899.267 203.926 899.267 198.019V186.552C896.256 191.764 891.97 195.818 886.411 198.714C880.967 201.494 875.176 202.884 869.037 202.884ZM876.855 184.294C879.403 184.294 881.836 183.888 884.152 183.078C886.469 182.267 888.611 181.166 890.58 179.777C892.549 178.387 894.287 176.765 895.792 174.912C897.298 172.943 898.456 170.974 899.267 169.005V147.288C897.877 143.697 895.908 140.57 893.36 137.906C890.928 135.242 888.148 133.215 885.021 131.825C882.009 130.319 878.824 129.566 875.465 129.566C871.875 129.566 868.631 130.319 865.736 131.825C862.84 133.331 860.35 135.473 858.265 138.253C856.18 140.917 854.559 143.929 853.4 147.288C852.358 150.531 851.837 153.948 851.837 157.538C851.837 161.245 852.474 164.719 853.748 167.962C855.022 171.205 856.759 174.043 858.96 176.476C861.277 178.908 863.941 180.819 866.952 182.209C870.079 183.599 873.38 184.294 876.855 184.294ZM985.752 204.1C978.455 204.1 971.853 202.884 965.946 200.451C960.039 197.903 955 194.486 950.831 190.201C946.661 185.799 943.418 180.819 941.101 175.259C938.901 169.584 937.8 163.619 937.8 157.364C937.8 148.677 939.711 140.743 943.534 133.562C947.472 126.381 953.031 120.648 960.213 116.362C967.509 111.961 976.081 109.76 985.926 109.76C995.887 109.76 1004.4 111.961 1011.47 116.362C1018.53 120.648 1023.92 126.381 1027.62 133.562C1031.44 140.628 1033.36 148.272 1033.36 156.496C1033.36 157.886 1033.3 159.333 1033.18 160.839C1033.07 162.229 1032.95 163.387 1032.83 164.314H962.471C962.934 168.947 964.266 173.001 966.467 176.476C968.784 179.95 971.679 182.614 975.154 184.467C978.745 186.205 982.567 187.074 986.621 187.074C991.254 187.074 995.597 185.973 999.651 183.773C1003.82 181.456 1006.66 178.445 1008.16 174.738L1028.14 180.298C1025.94 184.931 1022.76 189.043 1018.59 192.633C1014.53 196.224 1009.73 199.061 1004.17 201.146C998.609 203.115 992.47 204.1 985.752 204.1ZM961.95 149.546H1009.55C1009.09 144.913 1007.76 140.917 1005.56 137.558C1003.47 134.084 1000.69 131.42 997.219 129.566C993.744 127.597 989.864 126.613 985.578 126.613C981.409 126.613 977.586 127.597 974.112 129.566C970.753 131.42 967.973 134.084 965.772 137.558C963.687 140.917 962.413 144.913 961.95 149.546ZM1084.06 139.817C1084.06 132.288 1085.4 124.933 1088.06 117.752C1090.84 110.455 1094.84 103.853 1100.05 97.9461C1105.26 91.9232 1111.63 87.1743 1119.16 83.6996C1126.69 80.109 1135.26 78.3137 1144.87 78.3137C1156.22 78.3137 1166.01 80.8039 1174.23 85.7844C1182.57 90.7649 1188.77 97.2511 1192.82 105.243L1174.41 117.926C1172.32 113.293 1169.6 109.644 1166.24 106.98C1162.88 104.201 1159.29 102.29 1155.47 101.247C1151.65 100.089 1147.88 99.5097 1144.18 99.5097C1138.15 99.5097 1132.88 100.726 1128.37 103.158C1123.97 105.591 1120.26 108.776 1117.25 112.714C1114.24 116.652 1111.98 121.053 1110.47 125.918C1109.08 130.783 1108.39 135.647 1108.39 140.512C1108.39 145.956 1109.26 151.226 1110.99 156.322C1112.73 161.302 1115.16 165.762 1118.29 169.7C1121.53 173.522 1125.36 176.591 1129.76 178.908C1134.27 181.109 1139.2 182.209 1144.53 182.209C1148.35 182.209 1152.23 181.572 1156.17 180.298C1160.1 179.024 1163.75 176.997 1167.11 174.217C1170.47 171.437 1173.08 167.847 1174.93 163.445L1194.56 174.738C1192.13 180.877 1188.13 186.089 1182.57 190.375C1177.13 194.66 1170.99 197.903 1164.16 200.104C1157.32 202.305 1150.55 203.405 1143.83 203.405C1135.03 203.405 1126.98 201.61 1119.68 198.019C1112.38 194.313 1106.07 189.448 1100.74 183.425C1095.53 177.286 1091.42 170.453 1088.41 162.924C1085.51 155.28 1084.06 147.577 1084.06 139.817ZM1292.99 202.362H1269.71V151.284C1269.71 144.218 1268.32 138.948 1265.54 135.473C1262.88 131.999 1259.17 130.261 1254.42 130.261C1251.64 130.261 1248.69 131.072 1245.56 132.694C1242.43 134.315 1239.6 136.574 1237.05 139.469C1234.62 142.249 1232.82 145.492 1231.66 149.199V202.362H1208.38V75.5339H1231.66V128.176C1235.02 122.385 1239.6 117.868 1245.39 114.625C1251.18 111.382 1257.49 109.76 1264.33 109.76C1270.23 109.76 1275.04 110.803 1278.75 112.888C1282.45 114.857 1285.35 117.578 1287.43 121.053C1289.52 124.412 1290.97 128.234 1291.78 132.52C1292.59 136.69 1292.99 141.033 1292.99 145.55V202.362ZM1313.24 202.362V111.324H1336.52V202.362H1313.24ZM1313.24 98.641V75.5339H1336.52V98.641H1313.24ZM1442.13 202.362H1418.85V151.284C1418.85 143.987 1417.57 138.659 1415.03 135.3C1412.48 131.941 1408.94 130.261 1404.43 130.261C1401.3 130.261 1398.11 131.072 1394.87 132.694C1391.74 134.315 1388.91 136.574 1386.36 139.469C1383.81 142.249 1381.96 145.492 1380.8 149.199V202.362H1357.52V111.324H1378.54V128.176C1380.86 124.238 1383.81 120.937 1387.4 118.273C1390.99 115.494 1395.1 113.409 1399.74 112.019C1404.49 110.513 1409.47 109.76 1414.68 109.76C1420.35 109.76 1424.99 110.803 1428.58 112.888C1432.28 114.857 1435.06 117.578 1436.92 121.053C1438.89 124.412 1440.22 128.234 1440.91 132.52C1441.72 136.805 1442.13 141.149 1442.13 145.55V202.362ZM1456.12 175.433C1456.12 169.526 1457.74 164.372 1460.98 159.97C1464.34 155.453 1468.97 151.979 1474.88 149.546C1480.79 147.114 1487.56 145.898 1495.21 145.898C1499.03 145.898 1502.91 146.187 1506.85 146.766C1510.79 147.346 1514.2 148.272 1517.1 149.546V144.682C1517.1 138.89 1515.36 134.431 1511.89 131.304C1508.53 128.176 1503.49 126.613 1496.77 126.613C1491.79 126.613 1487.04 127.481 1482.53 129.219C1478.01 130.956 1473.26 133.504 1468.28 136.863L1460.81 121.574C1466.83 117.636 1472.97 114.683 1479.22 112.714C1485.59 110.745 1492.25 109.76 1499.2 109.76C1512.18 109.76 1522.25 113.003 1529.43 119.49C1536.73 125.976 1540.38 135.242 1540.38 147.288V176.302C1540.38 178.734 1540.79 180.472 1541.6 181.514C1542.52 182.556 1543.97 183.193 1545.94 183.425V202.362C1543.85 202.71 1541.94 203 1540.21 203.231C1538.58 203.463 1537.19 203.579 1536.04 203.579C1531.4 203.579 1527.87 202.536 1525.44 200.451C1523.12 198.367 1521.67 195.818 1521.1 192.807L1520.57 188.116C1516.64 193.212 1511.71 197.15 1505.81 199.93C1499.9 202.71 1493.88 204.1 1487.74 204.1C1481.71 204.1 1476.27 202.884 1471.41 200.451C1466.66 197.903 1462.89 194.486 1460.11 190.201C1457.45 185.799 1456.12 180.877 1456.12 175.433ZM1512.76 180.124C1514.03 178.734 1515.07 177.344 1515.88 175.954C1516.69 174.564 1517.1 173.29 1517.1 172.132V162.924C1514.32 161.766 1511.31 160.897 1508.06 160.318C1504.82 159.623 1501.75 159.276 1498.86 159.276C1492.83 159.276 1487.85 160.607 1483.92 163.271C1480.09 165.82 1478.18 169.236 1478.18 173.522C1478.18 175.839 1478.82 178.039 1480.09 180.124C1481.37 182.209 1483.22 183.888 1485.65 185.162C1488.08 186.437 1490.98 187.074 1494.34 187.074C1497.81 187.074 1501.23 186.437 1504.59 185.162C1507.95 183.773 1510.67 182.093 1512.76 180.124Z" fill="white"/>
</svg>
