<?xml version="1.0" standalone="no"?>
<!DOCTYPE svg PUBLIC "-//W3C//DTD SVG 20010904//EN"
 "http://www.w3.org/TR/2001/REC-SVG-20010904/DTD/svg10.dtd">
<svg version="1.0" xmlns="http://www.w3.org/2000/svg"
 width="50.000000pt" height="50.000000pt" viewBox="0 0 50.000000 50.000000"
 preserveAspectRatio="xMidYMid meet">

<g transform="translate(0.000000,50.000000) scale(0.100000,-0.100000)"
fill="#000000" stroke="none">
<path d="M240 352 c-129 -55 -205 -93 -205 -102 0 -8 24 -23 55 -35 53 -20 55
-22 72 -80 25 -81 32 -86 70 -48 l31 31 54 -40 c47 -36 56 -39 68 -27 22 22
86 361 72 376 -10 10 -57 -7 -217 -75z m210 56 c0 -7 -14 -88 -32 -180 -22
-118 -36 -168 -45 -168 -7 0 -43 23 -78 51 l-65 51 81 94 c45 52 79 97 76 100
-3 3 -57 -29 -120 -71 l-116 -77 -50 17 c-28 9 -51 20 -51 24 0 8 366 169 388
170 6 1 12 -4 12 -11z m-174 -172 c-35 -39 -62 -81 -69 -108 l-13 -43 -17 49
c-9 27 -17 53 -17 58 0 10 162 119 168 113 3 -2 -21 -33 -52 -69z m-33 -103
c8 -7 -11 -33 -23 -33 -5 0 -6 9 -3 20 5 20 15 25 26 13z"/>
</g>
</svg>
