<?xml version="1.0" encoding="iso-8859-1"?>
<!-- Generator: Adobe Illustrator 19.0.0, SVG Export Plug-In . SVG Version: 6.00 Build 0)  -->
<svg version="1.1" id="Layer_1" xmlns="http://www.w3.org/2000/svg" xmlns:xlink="http://www.w3.org/1999/xlink" x="0px" y="0px"
	 viewBox="0 0 512 512" style="enable-background:new 0 0 512 512;" xml:space="preserve">
<g>
	<g>
		<path d="M437.02,74.981C388.668,26.629,324.38,0,256,0S123.332,26.629,74.98,74.981C26.629,123.332,0,187.62,0,256
			s26.629,132.668,74.98,181.019C123.332,485.371,187.62,512,256,512s132.668-26.629,181.02-74.981
			C485.371,388.668,512,324.38,512,256S485.371,123.332,437.02,74.981z M256,494.819C124.315,494.819,17.181,387.685,17.181,256
			S124.315,17.181,256,17.181S494.819,124.315,494.819,256S387.685,494.819,256,494.819z"/>
	</g>
</g>
<g>
	<g>
		<path d="M392.08,124.1c-1.408-3.035-4.449-4.977-7.793-4.977H338.47c-2.515,0-4.905,1.103-6.537,3.017L256,211.197l-75.933-89.057
			c-1.632-1.914-4.022-3.017-6.537-3.017h-45.817c-3.345,0-6.386,1.941-7.793,4.977c-1.408,3.034-0.925,6.61,1.235,9.163
			l88.833,104.983h-27.294c-4.744,0-8.591,3.846-8.591,8.591v36.653c0,4.744,3.846,8.591,8.591,8.591h46.389v19.472h-46.389
			c-4.744,0-8.591,3.846-8.591,8.591v36.653c0,4.744,3.846,8.591,8.591,8.591h46.389v55.553c0,4.744,3.846,8.591,8.591,8.591h36.653
			c4.744,0,8.591-3.846,8.591-8.591v-55.553h46.389c4.744,0,8.591-3.846,8.591-8.591v-36.653c0-4.744-3.846-8.591-8.591-8.591
			h-46.389v-19.472h46.389c4.744,0,8.591-3.846,8.591-8.591v-36.653c0-4.744-3.846-8.591-8.591-8.591h-27.294l88.833-104.983
			C393.005,130.71,393.487,127.134,392.08,124.1z M276.931,241.287c-2.16,2.553-2.642,6.129-1.235,9.163
			c1.408,3.034,4.448,4.977,7.793,4.977h37.226v19.472h-46.389c-4.744,0-8.591,3.846-8.591,8.591v36.653
			c0,4.744,3.846,8.591,8.591,8.591h46.389v19.472h-46.389c-4.744,0-8.591,3.846-8.591,8.591v55.553h-19.472v-55.553
			c0-4.744-3.846-8.591-8.591-8.591h-46.389v-19.472h46.389c4.744,0,8.591-3.846,8.591-8.591V283.49
			c0-4.744-3.846-8.591-8.591-8.591h-46.389v-19.472h37.226c3.345,0,6.386-1.941,7.793-4.977c1.408-3.034,0.925-6.61-1.235-9.163
			l-88.833-104.983h23.33l79.897,93.707c1.632,1.914,4.022,3.017,6.537,3.017s4.905-1.103,6.537-3.017l79.897-93.707h23.33
			L276.931,241.287z"/>
	</g>
</g>
<g>
</g>
<g>
</g>
<g>
</g>
<g>
</g>
<g>
</g>
<g>
</g>
<g>
</g>
<g>
</g>
<g>
</g>
<g>
</g>
<g>
</g>
<g>
</g>
<g>
</g>
<g>
</g>
<g>
</g>
</svg>
